<?xml version="1.0" encoding="utf-8"?>
<!-- Generator: Adobe Illustrator 28.3.0, SVG Export Plug-In . SVG Version: 6.00 Build 0)  -->
<svg version="1.1" id="Livello_1" xmlns="http://www.w3.org/2000/svg" xmlns:xlink="http://www.w3.org/1999/xlink" x="0px" y="0px"
	 viewBox="0 0 841.9 595.3" style="enable-background:new 0 0 841.9 595.3;" xml:space="preserve">
<style type="text/css">
	.st0{fill:#020203;}
</style>
<g>
	<path class="st0" d="M217.1,351.6h4l4.4,7.1l4.4-7.1h4v16.8h-3.6v-11l-4.7,7.2h-0.1l-4.7-7.1v10.9h-3.6L217.1,351.6L217.1,351.6z"
		/>
	<path class="st0" d="M247.1,355H242v-3.4H256v3.4h-5.1v13.4h-3.7V355z"/>
	<path class="st0" d="M268,355h-5.1v-3.4h13.9v3.4h-5.1v13.4H268L268,355L268,355z"/>
	<path class="st0" d="M284.9,351.6h4l4.4,7.1l4.4-7.1h4v16.8h-3.6v-11l-4.7,7.2h-0.1l-4.7-7.1v10.9h-3.6L284.9,351.6L284.9,351.6z"
		/>
	<path class="st0" d="M316.8,351.5h3.4l7.2,16.9h-3.9l-1.5-3.8h-7.1l-1.5,3.8h-3.8L316.8,351.5z M320.7,361.4l-2.2-5.5l-2.2,5.5
		H320.7z"/>
	<path class="st0" d="M335.2,351.6h3.4l7.9,10.3v-10.3h3.6v16.8H347l-8.1-10.7v10.7h-3.6L335.2,351.6L335.2,351.6z"/>
	<path class="st0" d="M359.7,351.6h3.7v16.8h-3.7V351.6z"/>
	<path class="st0" d="M372.8,351.6h3.4l7.9,10.3v-10.3h3.6v16.8h-3.1l-8.1-10.7v10.7h-3.6L372.8,351.6L372.8,351.6z"/>
	<path class="st0" d="M397.2,351.6h3.7v16.8h-3.7V351.6z"/>
	<path class="st0" d="M420.4,372.3c-1.5,0-3-0.3-4.3-0.8c-1.3-0.5-2.4-1.3-3.4-2.3c-1-1-1.7-2.1-2.2-3.3c-0.5-1.3-0.8-2.6-0.8-4.1
		s0.3-2.8,0.8-4.1s1.3-2.4,2.2-3.3c0.9-1,2.1-1.7,3.3-2.3s2.7-0.8,4.1-0.8s2.8,0.3,4.1,0.8c1.3,0.5,2.4,1.2,3.3,2.1
		c0.9,0.9,1.7,1.9,2.2,3c0.5,1.1,0.8,2.3,0.8,3.6c0,1-0.1,1.9-0.4,2.6s-0.6,1.4-1,1.9s-0.9,0.9-1.5,1.1s-1.2,0.4-1.9,0.4
		c-1,0-1.8-0.1-2.3-0.5c-0.6-0.3-1-0.6-1.3-1c-0.4,0.4-0.9,0.7-1.5,1s-1.3,0.4-2,0.4c-0.6,0-1.2-0.1-1.7-0.3c-0.5-0.2-1-0.5-1.4-0.9
		c-0.4-0.4-0.7-0.9-0.9-1.5c-0.2-0.6-0.3-1.2-0.3-1.9c0-0.9,0.1-1.6,0.4-2.4s0.7-1.4,1.2-1.9s1.1-1,1.7-1.3s1.3-0.5,2-0.5
		c0.8,0,1.5,0.2,2,0.5s1,0.7,1.3,1.2l0.3-1.3l2.8,0.5l-1.1,6.5c0,0.1,0,0.3-0.1,0.4c0,0.1,0,0.2,0,0.4c0,0.4,0.1,0.8,0.5,1.1
		c0.3,0.3,0.7,0.4,1.3,0.4c0.4,0,0.8-0.1,1.2-0.3c0.4-0.2,0.7-0.5,1-0.9s0.5-0.9,0.6-1.5c0.2-0.6,0.2-1.3,0.2-2.1
		c0-1.1-0.2-2.2-0.7-3.2s-1.1-1.9-2-2.7s-1.8-1.4-3-1.9c-1.2-0.5-2.4-0.7-3.8-0.7c-1.4,0-2.6,0.2-3.8,0.8s-2.2,1.2-3,2s-1.5,1.9-2,3
		c-0.5,1.2-0.7,2.4-0.7,3.7c0,1.3,0.2,2.6,0.7,3.7s1.1,2.2,2,3c0.9,0.9,1.9,1.5,3.1,2s2.5,0.7,3.9,0.7c1.2,0,2.2-0.1,3.2-0.4
		c0.9-0.3,1.8-0.7,2.7-1.2l0.5,0.8c-0.9,0.6-1.9,1-2.9,1.3C422.8,372.2,421.6,372.3,420.4,372.3z M419.5,364.4
		c0.4,0,0.8-0.1,1.1-0.3c0.3-0.2,0.6-0.4,0.9-0.7s0.5-0.7,0.6-1.1c0.1-0.4,0.2-0.9,0.2-1.4c0-0.7-0.2-1.2-0.6-1.6
		c-0.4-0.4-1-0.6-1.6-0.6c-0.4,0-0.8,0.1-1.1,0.3c-0.4,0.2-0.7,0.4-0.9,0.7s-0.5,0.6-0.6,1.1s-0.2,0.9-0.2,1.3
		c0,0.8,0.2,1.3,0.6,1.7S418.8,364.4,419.5,364.4z"/>
	<path class="st0" d="M447.3,368.7c-1.3,0-2.5-0.2-3.6-0.6s-2-1-2.8-1.8c-0.8-0.8-1.4-1.7-1.8-2.7s-0.6-2.2-0.6-3.5v0
		c0-1.2,0.2-2.3,0.7-3.4s1-2,1.8-2.8s1.7-1.4,2.8-1.9c1.1-0.5,2.2-0.7,3.5-0.7c0.8,0,1.4,0,2,0.2c0.6,0.1,1.2,0.2,1.7,0.4
		s1,0.4,1.5,0.7s0.9,0.6,1.3,1l-2.3,2.8c-0.3-0.3-0.6-0.5-1-0.7s-0.6-0.4-1-0.5c-0.3-0.1-0.7-0.3-1.1-0.3s-0.8-0.1-1.3-0.1
		c-0.7,0-1.3,0.1-1.9,0.4c-0.6,0.3-1.1,0.7-1.5,1.1s-0.8,1-1,1.7s-0.4,1.3-0.4,2v0c0,0.8,0.1,1.5,0.4,2.1s0.6,1.2,1.1,1.7
		s1,0.9,1.6,1.1s1.3,0.4,2,0.4c1.4,0,2.5-0.3,3.5-1V362h-3.7v-3.2h7.3v7.3c-0.9,0.7-1.9,1.4-3.1,1.9
		C450.2,368.5,448.8,368.7,447.3,368.7z"/>
	<path class="st0" d="M463.3,351.6h4l4.4,7.1l4.4-7.1h4v16.8h-3.6v-11l-4.7,7.2h-0.1l-4.7-7.1v10.9h-3.6L463.3,351.6L463.3,351.6z"
		/>
	<path class="st0" d="M495.2,351.5h3.4l7.2,16.9h-3.9l-1.5-3.8h-7.1l-1.5,3.8H488L495.2,351.5z M499.1,361.4l-2.2-5.5l-2.2,5.5
		H499.1z"/>
	<path class="st0" d="M513.8,351.6h3.7v16.8h-3.7V351.6z"/>
	<path class="st0" d="M527,351.6h3.7v13.5h8.4v3.3H527L527,351.6L527,351.6z"/>
	<path class="st0" d="M546.6,364.6h3.9v3.8h-3.9V364.6z"/>
	<path class="st0" d="M567.2,368.7c-1.2,0-2.4-0.2-3.4-0.7s-2-1.1-2.7-1.8s-1.4-1.7-1.8-2.8s-0.7-2.2-0.7-3.4v0
		c0-1.2,0.2-2.3,0.7-3.4c0.4-1,1-2,1.8-2.8c0.8-0.8,1.7-1.4,2.8-1.9c1.1-0.5,2.3-0.7,3.5-0.7c0.8,0,1.5,0.1,2.2,0.2s1.2,0.3,1.8,0.5
		c0.5,0.2,1,0.5,1.5,0.8c0.5,0.3,0.9,0.7,1.2,1.1l-2.3,2.7c-0.7-0.6-1.3-1.1-2-1.4c-0.7-0.3-1.4-0.5-2.3-0.5c-0.7,0-1.4,0.1-2,0.4
		c-0.6,0.3-1.1,0.6-1.5,1.1s-0.8,1-1,1.7s-0.4,1.3-0.4,2v0c0,0.7,0.1,1.4,0.4,2s0.6,1.2,1,1.7s0.9,0.9,1.5,1.1
		c0.6,0.3,1.3,0.4,2,0.4c1,0,1.8-0.2,2.4-0.5c0.7-0.4,1.3-0.8,2-1.4l2.3,2.4c-0.4,0.5-0.9,0.9-1.3,1.2s-1,0.7-1.5,1
		c-0.5,0.3-1.2,0.5-1.8,0.6S568,368.7,567.2,368.7z"/>
	<path class="st0" d="M590.4,368.7c-1.3,0-2.5-0.2-3.6-0.7s-2-1.1-2.8-1.9s-1.4-1.7-1.8-2.7s-0.7-2.2-0.7-3.4v0
		c0-1.2,0.2-2.3,0.7-3.4s1.1-2,1.9-2.8s1.7-1.4,2.8-1.9c1.1-0.5,2.3-0.7,3.6-0.7s2.5,0.2,3.6,0.7c1.1,0.5,2,1.1,2.8,1.9
		s1.4,1.7,1.8,2.7s0.7,2.2,0.7,3.4v0c0,1.2-0.2,2.3-0.7,3.4s-1.1,2-1.9,2.8s-1.7,1.4-2.8,1.9S591.7,368.7,590.4,368.7z M590.5,365.3
		c0.7,0,1.4-0.1,2-0.4s1.2-0.6,1.6-1.1s0.8-1,1-1.7s0.4-1.3,0.4-2v0c0-0.7-0.1-1.4-0.4-2s-0.6-1.2-1.1-1.7s-1-0.9-1.6-1.1
		s-1.3-0.4-2-0.4c-0.8,0-1.4,0.1-2,0.4c-0.6,0.3-1.1,0.6-1.6,1.1s-0.8,1-1,1.7s-0.4,1.3-0.4,2v0c0,0.7,0.1,1.4,0.4,2
		s0.6,1.2,1.1,1.7c0.5,0.5,1,0.9,1.6,1.1C589.1,365.2,589.7,365.3,590.5,365.3z"/>
	<path class="st0" d="M608,351.6h4l4.4,7.1l4.4-7.1h4v16.8h-3.7v-11l-4.7,7.2h-0.1l-4.7-7.1v10.9h-3.7L608,351.6L608,351.6z"/>
</g>
</svg>
