<?xml version="1.0" encoding="utf-8"?>
<!-- Generator: Adobe Illustrator 28.3.0, SVG Export Plug-In . SVG Version: 6.00 Build 0)  -->
<svg version="1.1" id="Livello_1" xmlns="http://www.w3.org/2000/svg" xmlns:xlink="http://www.w3.org/1999/xlink" x="0px" y="0px"
	 viewBox="0 0 841.9 595.3" style="enable-background:new 0 0 841.9 595.3;" xml:space="preserve">
<style type="text/css">
	.st0{fill:#020203;}
</style>
<g>
	<path class="st0" d="M279.3,318.9h-4.3v-3.3h4.3v-4.3h3.4v4.3h4.3v3.3h-4.3v4.3h-3.4V318.9z"/>
	<path class="st0" d="M301.4,325.9c-1.5,0-2.8-0.3-3.9-0.8c-1.1-0.5-2-1.2-2.7-2.1l2.5-2.4c0.6,0.7,1.2,1.2,1.8,1.5s1.4,0.5,2.2,0.5
		c0.7,0,1.3-0.2,1.7-0.5s0.7-0.9,0.7-1.5v0c0-0.7-0.3-1.2-0.9-1.6c-0.6-0.4-1.4-0.5-2.4-0.5H299l-0.6-2.3l4-4h-6.6v-3.2h11.4v2.8
		l-4.3,4.1c0.6,0.1,1.1,0.2,1.7,0.5s1,0.5,1.5,0.9c0.4,0.4,0.8,0.8,1,1.4c0.3,0.5,0.4,1.2,0.4,2v0c0,0.8-0.1,1.5-0.4,2.2
		c-0.3,0.7-0.7,1.2-1.2,1.7c-0.5,0.5-1.2,0.9-1.9,1.1C303.2,325.8,302.3,325.9,301.4,325.9z"/>
	<path class="st0" d="M323.7,322h-8.2l-0.6-2.6l9.2-10.7h3.1V319h2.3v3h-2.3v3.6h-3.5V322z M323.7,319v-5.2l-4.5,5.2H323.7z"/>
	<path class="st0" d="M356.5,325.9c-1.1,0-2-0.1-2.8-0.5c-0.8-0.3-1.5-0.8-2-1.3c-0.6-0.6-1.1-1.4-1.5-2.4s-0.5-2.3-0.5-4v0
		c0-1.3,0.1-2.5,0.4-3.6c0.3-1.1,0.8-2.1,1.4-2.9c0.6-0.8,1.4-1.5,2.3-1.9c0.9-0.5,2-0.7,3.3-0.7c0.6,0,1.1,0,1.6,0.1
		c0.5,0.1,0.9,0.2,1.3,0.4s0.8,0.4,1.2,0.6c0.4,0.2,0.8,0.5,1.1,0.8l-1.9,2.8c-0.3-0.2-0.5-0.4-0.8-0.6s-0.5-0.3-0.8-0.4
		c-0.3-0.1-0.6-0.2-0.9-0.3s-0.6-0.1-1-0.1c-0.5,0-1,0.1-1.4,0.3c-0.4,0.2-0.7,0.5-1,0.8c-0.3,0.4-0.5,0.8-0.7,1.2
		c-0.2,0.5-0.3,1-0.3,1.5c0.4-0.3,0.9-0.5,1.4-0.7s1.2-0.3,2-0.3s1.6,0.1,2.3,0.4s1.3,0.6,1.9,1s0.9,1,1.2,1.7s0.5,1.4,0.5,2.3v0
		c0,0.9-0.2,1.6-0.5,2.4s-0.8,1.3-1.3,1.8c-0.6,0.5-1.2,0.9-2,1.2S357.5,325.9,356.5,325.9z M356.4,322.7c0.9,0,1.6-0.2,2.1-0.7
		c0.5-0.5,0.8-1,0.8-1.8v0c0-0.7-0.3-1.3-0.8-1.8c-0.5-0.5-1.2-0.7-2.2-0.7s-1.6,0.2-2.1,0.7c-0.5,0.5-0.8,1-0.8,1.7v0
		c0,0.7,0.3,1.3,0.8,1.8C354.8,322.5,355.5,322.7,356.4,322.7z"/>
	<path class="st0" d="M379.1,322h-8.2l-0.6-2.6l9.2-10.7h3.1V319h2.3v3h-2.3v3.6h-3.5V322z M379.1,319v-5.2l-4.5,5.2H379.1z"/>
	<path class="st0" d="M398.9,325.9c-1.5,0-2.8-0.3-3.9-0.8c-1.1-0.5-2-1.2-2.7-2.1l2.5-2.4c0.6,0.7,1.2,1.2,1.8,1.5s1.4,0.5,2.2,0.5
		c0.7,0,1.3-0.2,1.7-0.5s0.7-0.9,0.7-1.5v0c0-0.7-0.3-1.2-0.9-1.6c-0.6-0.4-1.4-0.5-2.4-0.5h-1.5l-0.6-2.3l4-4h-6.6v-3.2h11.4v2.8
		l-4.3,4.1c0.6,0.1,1.1,0.2,1.7,0.5s1,0.5,1.5,0.9c0.4,0.4,0.8,0.8,1,1.4c0.3,0.5,0.4,1.2,0.4,2v0c0,0.8-0.1,1.5-0.4,2.2
		c-0.3,0.7-0.7,1.2-1.2,1.7c-0.5,0.5-1.2,0.9-1.9,1.1C400.6,325.8,399.8,325.9,398.9,325.9z"/>
	<path class="st0" d="M431.5,325.9c-1.5,0-2.8-0.3-3.9-0.8c-1.1-0.5-2-1.2-2.7-2.1l2.5-2.4c0.6,0.7,1.2,1.2,1.8,1.5s1.4,0.5,2.2,0.5
		c0.7,0,1.3-0.2,1.7-0.5s0.7-0.9,0.7-1.5v0c0-0.7-0.3-1.2-0.9-1.6c-0.6-0.4-1.4-0.5-2.4-0.5h-1.5l-0.6-2.3l4-4h-6.6v-3.2h11.4v2.8
		l-4.3,4.1c0.6,0.1,1.1,0.2,1.7,0.5s1,0.5,1.5,0.9c0.4,0.4,0.8,0.8,1,1.4c0.3,0.5,0.4,1.2,0.4,2v0c0,0.8-0.1,1.5-0.4,2.2
		c-0.3,0.7-0.7,1.2-1.2,1.7c-0.5,0.5-1.2,0.9-1.9,1.1C433.3,325.8,432.5,325.9,431.5,325.9z"/>
	<path class="st0" d="M451.7,325.9c-1.5,0-2.8-0.3-3.9-0.8c-1.1-0.5-2-1.2-2.7-2.1l2.5-2.4c0.6,0.7,1.2,1.2,1.8,1.5s1.4,0.5,2.2,0.5
		c0.7,0,1.3-0.2,1.7-0.5s0.7-0.9,0.7-1.5v0c0-0.7-0.3-1.2-0.9-1.6c-0.6-0.4-1.4-0.5-2.4-0.5h-1.5l-0.6-2.3l4-4h-6.6v-3.2h11.4v2.8
		l-4.3,4.1c0.6,0.1,1.1,0.2,1.7,0.5s1,0.5,1.5,0.9c0.4,0.4,0.8,0.8,1,1.4c0.3,0.5,0.4,1.2,0.4,2v0c0,0.8-0.1,1.5-0.4,2.2
		c-0.3,0.7-0.7,1.2-1.2,1.7c-0.5,0.5-1.2,0.9-1.9,1.1C453.5,325.8,452.6,325.9,451.7,325.9z"/>
	<path class="st0" d="M473.2,325.9c-1.1,0-2.1-0.2-3.1-0.7s-1.7-1-2.4-1.8c-0.6-0.8-1.1-1.7-1.5-2.8s-0.5-2.2-0.5-3.4v0
		c0-1.2,0.2-2.4,0.5-3.4c0.4-1.1,0.9-2,1.5-2.8c0.7-0.8,1.4-1.4,2.4-1.9c0.9-0.5,1.9-0.7,3.1-0.7c1.1,0,2.1,0.2,3,0.7s1.7,1,2.4,1.8
		c0.6,0.8,1.1,1.7,1.5,2.8c0.4,1.1,0.5,2.2,0.5,3.4v0c0,1.2-0.2,2.4-0.5,3.4c-0.4,1.1-0.9,2-1.5,2.8c-0.7,0.8-1.4,1.4-2.4,1.9
		S474.3,325.9,473.2,325.9z M473.2,322.6c0.6,0,1.1-0.1,1.5-0.4c0.5-0.3,0.8-0.6,1.1-1.1s0.6-1,0.7-1.7s0.2-1.4,0.2-2.1v0
		c0-0.8-0.1-1.5-0.3-2.1s-0.4-1.2-0.8-1.7s-0.7-0.9-1.2-1.1c-0.5-0.3-1-0.4-1.5-0.4c-0.6,0-1.1,0.1-1.5,0.4s-0.8,0.6-1.1,1.1
		c-0.3,0.5-0.6,1-0.7,1.7c-0.2,0.6-0.3,1.4-0.3,2.1v0c0,0.8,0.1,1.5,0.3,2.1c0.2,0.7,0.4,1.2,0.7,1.7c0.3,0.5,0.7,0.8,1.2,1.1
		C472.1,322.5,472.6,322.6,473.2,322.6z"/>
	<path class="st0" d="M507.8,325.9c-1.1,0-2-0.1-2.8-0.5c-0.8-0.3-1.5-0.8-2-1.3c-0.6-0.6-1.1-1.4-1.5-2.4s-0.5-2.3-0.5-4v0
		c0-1.3,0.1-2.5,0.4-3.6c0.3-1.1,0.8-2.1,1.4-2.9c0.6-0.8,1.4-1.5,2.3-1.9c0.9-0.5,2-0.7,3.3-0.7c0.6,0,1.1,0,1.6,0.1
		c0.5,0.1,0.9,0.2,1.3,0.4s0.8,0.4,1.2,0.6c0.4,0.2,0.8,0.5,1.1,0.8l-1.9,2.8c-0.3-0.2-0.5-0.4-0.8-0.6s-0.5-0.3-0.8-0.4
		c-0.3-0.1-0.6-0.2-0.9-0.3s-0.6-0.1-1-0.1c-0.5,0-1,0.1-1.4,0.3c-0.4,0.2-0.7,0.5-1,0.8c-0.3,0.4-0.5,0.8-0.7,1.2
		c-0.2,0.5-0.3,1-0.3,1.5c0.4-0.3,0.9-0.5,1.4-0.7s1.2-0.3,2-0.3s1.6,0.1,2.3,0.4s1.3,0.6,1.9,1s0.9,1,1.2,1.7s0.5,1.4,0.5,2.3v0
		c0,0.9-0.2,1.6-0.5,2.4s-0.8,1.3-1.3,1.8c-0.6,0.5-1.2,0.9-2,1.2S508.8,325.9,507.8,325.9z M507.7,322.7c0.9,0,1.6-0.2,2.1-0.7
		c0.5-0.5,0.8-1,0.8-1.8v0c0-0.7-0.3-1.3-0.8-1.8c-0.5-0.5-1.2-0.7-2.2-0.7s-1.6,0.2-2.1,0.7c-0.5,0.5-0.8,1-0.8,1.7v0
		c0,0.7,0.3,1.3,0.8,1.8C506.1,322.5,506.8,322.7,507.7,322.7z"/>
	<path class="st0" d="M528.4,325.9c-0.9,0-1.8-0.1-2.6-0.4c-0.8-0.2-1.5-0.6-2-1s-1-0.9-1.4-1.5c-0.3-0.6-0.5-1.3-0.5-2v0
		c0-1,0.2-1.9,0.7-2.5c0.5-0.6,1.1-1.2,2-1.6c-0.7-0.4-1.2-0.9-1.6-1.5s-0.6-1.3-0.6-2.2v0c0-0.6,0.1-1.2,0.4-1.8
		c0.3-0.6,0.7-1,1.2-1.5c0.5-0.4,1.1-0.7,1.9-1c0.7-0.2,1.5-0.4,2.4-0.4c0.9,0,1.7,0.1,2.4,0.4s1.3,0.6,1.9,1s0.9,0.9,1.2,1.5
		c0.3,0.6,0.4,1.2,0.4,1.8v0c0,0.9-0.2,1.6-0.6,2.2c-0.4,0.6-0.9,1-1.6,1.5c0.8,0.5,1.5,1,2,1.6s0.7,1.4,0.7,2.4v0
		c0,0.8-0.2,1.5-0.5,2.1s-0.8,1.1-1.4,1.5c-0.6,0.4-1.3,0.8-2,1C530.2,325.8,529.3,325.9,528.4,325.9z M528.4,322.8
		c0.9,0,1.6-0.2,2.1-0.6c0.5-0.4,0.8-0.9,0.8-1.5v0c0-0.7-0.3-1.2-0.8-1.5c-0.5-0.4-1.2-0.5-2.1-0.5c-0.8,0-1.5,0.2-2.1,0.5
		c-0.5,0.4-0.8,0.9-0.8,1.5v0c0,0.6,0.3,1.1,0.8,1.5S527.5,322.8,528.4,322.8z M528.4,315.7c0.7,0,1.3-0.2,1.8-0.6
		c0.4-0.4,0.7-0.9,0.7-1.5v0c0-0.5-0.2-1-0.6-1.4c-0.4-0.4-1-0.6-1.8-0.6s-1.4,0.2-1.8,0.6s-0.6,0.8-0.6,1.4v0
		c0,0.6,0.2,1.1,0.7,1.5C527.1,315.5,527.7,315.7,528.4,315.7z"/>
	<path class="st0" d="M550.8,312h-7.9v-3.2H555v2.8l-7.5,14h-4.2L550.8,312z"/>
</g>
</svg>
