<?xml version="1.0" encoding="utf-8"?>
<!-- Generator: Adobe Illustrator 28.3.0, SVG Export Plug-In . SVG Version: 6.00 Build 0)  -->
<svg version="1.1" xmlns="http://www.w3.org/2000/svg" xmlns:xlink="http://www.w3.org/1999/xlink" x="0px" y="0px"
	 viewBox="0 0 1920 1080" style="enable-background:new 0 0 1920 1080;" xml:space="preserve">
<style type="text/css">
	.st0{fill:#FFB800;}
</style>
<g id="Livello_1">
	<g>
		<path class="st0" d="M960.98,637l-36.66-31.9l15.53-14.2v-91.17l-25.66-23.36l-16.16,9.79V590.9L914,605.09L878.54,637
			l-42.55-33.69l14.19-12.41v-98.26l-14.19-15.96l-14.18,8.87l-5.32-7.09L867.9,443l27.2,30.34L943.71,443l36.81,31.75l50.85-31.75
			l38.41,33.13l12.05-9.77l6.52,8.04l-18.28,14.82v92.94l17.29,17.63l15.91-11.96l0.25,13.56l-54.87,35.6l-36.65-31.9l15.53-14.2
			v-91.17l-25.66-23.36l-19.45,11.79v98.93l19.21,17.14L960.98,637z"/>
	</g>
</g>
<g id="Livello_2">
</g>
</svg>
