<?xml version="1.0" encoding="utf-8"?>
<!-- Generator: Adobe Illustrator 28.3.0, SVG Export Plug-In . SVG Version: 6.00 Build 0)  -->
<svg version="1.1" xmlns="http://www.w3.org/2000/svg" xmlns:xlink="http://www.w3.org/1999/xlink" x="0px" y="0px"
	 viewBox="0 0 1920 1080" style="enable-background:new 0 0 1920 1080;" xml:space="preserve">
<style type="text/css">
	.st0{fill:#FFB800;}
</style>
<g id="Livello_1">
	<g>
		<path class="st0" d="M1187.89,468.71h-42.22c-8.26,0-14.91,1.64-19.97,4.93c-5.06,3.29-7.58,8.47-7.58,15.55v94.8
			c0,9.44,2.53,16.35,7.58,20.73c5.06,4.38,11.71,6.57,19.97,6.57h42.22v10.87H961.64v-10.87h30.33c8.25,0,14.92-2.19,19.97-6.57
			c5.06-4.38,7.58-11.29,7.58-20.73V480.85l-77.35,119.82h-13.14l-97.58-82.41v33.87c0,10.28,2.53,19.42,7.58,27.43
			c5.06,8.01,11.63,14.2,19.72,18.58c16.18,8.76,33.62,13.14,52.33,13.14v10.87H735.4v-10.87c18.71,0,36.15-4.38,52.33-13.14
			c8.09-4.38,14.66-10.57,19.72-18.58c5.05-8,7.58-17.15,7.58-27.43v-26.54c0-11.12-4.04-21.11-12.13-29.96s-18.37-15.55-30.84-20.1
			c-12.47-4.55-25.79-6.83-39.94-6.83v-10.87h163.55l77.61,65.98l42.47-65.98h172.15V468.71z M937.88,579.44v-15.93l-111.23-94.29
			h-25.28l130.19,110.22H937.88z M1036.47,468.71v142.57h16.43V468.71H1036.47z"/>
	</g>
</g>
<g id="Livello_2">
</g>
</svg>
