<?xml version="1.0" encoding="utf-8"?>
<!-- Generator: Adobe Illustrator 28.3.0, SVG Export Plug-In . SVG Version: 6.00 Build 0)  -->
<svg version="1.1" xmlns="http://www.w3.org/2000/svg" xmlns:xlink="http://www.w3.org/1999/xlink" x="0px" y="0px"
	 viewBox="0 0 1920 1080" style="enable-background:new 0 0 1920 1080;" xml:space="preserve">
<style type="text/css">
	.st0{fill:#FFB800;}
</style>
<g id="Livello_1">
	<g>
		<path class="st0" d="M540.31,465.67v207.84h-22.66v-92.79l-11.33,92.79h-17.67l-10.92-91.04v91.04h-22.66V465.67h22.66
			l19.83,108.57l19.83-108.57H540.31z"/>
		<path class="st0" d="M606.25,653.01h-17.4l-2.56,20.5h-22.66l22.66-207.84h22.52l22.66,207.84h-22.66L606.25,653.01z
			 M603.41,630.49l-5.93-60.96l-5.8,60.96H603.41z"/>
		<path class="st0" d="M694.03,488.33h-15.11v185.18H656.4V488.33H641.3v-22.66h52.74V488.33z"/>
		<path class="st0" d="M770.09,488.33h-15.11v185.18h-22.52V488.33h-15.11v-22.66h52.74V488.33z"/>
		<path class="st0" d="M816.06,488.33v70h22.52v22.66h-22.52v69.87h22.52v22.66H793.4V465.67h45.18v22.66H816.06z"/>
		<path class="st0" d="M892.38,462.7c8.45,0,15.65,2.97,21.58,8.9c6.02,6.03,9.04,13.22,9.04,21.58v152.95
			c0,8.36-3.01,15.56-9.04,21.58c-5.93,5.93-13.13,8.9-21.58,8.9c-8.36,0-15.56-2.97-21.58-8.9c-5.93-6.02-8.9-13.22-8.9-21.58
			V493.18c0-8.36,2.97-15.55,8.9-21.58C876.83,465.67,884.02,462.7,892.38,462.7z M884.83,648.83c0,2.07,0.76,3.82,2.29,5.26
			c1.44,1.44,3.19,2.16,5.26,2.16c2.07,0,3.86-0.72,5.4-2.16c1.44-1.44,2.16-3.19,2.16-5.26V490.49c0-2.07-0.72-3.82-2.16-5.26
			c-1.53-1.53-3.33-2.29-5.4-2.29c-2.07,0-3.82,0.77-5.26,2.29c-1.53,1.44-2.29,3.19-2.29,5.26V648.83z"/>
		<path class="st0" d="M1073.08,465.67v207.84h-22.66v-92.79l-11.33,92.79h-17.67l-10.92-91.04v91.04h-22.66V465.67h22.66
			l19.83,108.57l19.83-108.57H1073.08z"/>
		<path class="st0" d="M1139.02,653.01h-17.4l-2.56,20.5h-22.66l22.66-207.84h22.52l22.66,207.84h-22.66L1139.02,653.01z
			 M1136.19,630.49l-5.93-60.96l-5.8,60.96H1136.19z"/>
		<path class="st0" d="M1247.85,465.67v207.84h-22.66l-14.97-91.04v91.04h-22.66V465.67h22.66l14.97,90.23v-90.23H1247.85z"/>
		<path class="st0" d="M1293.82,673.51h-22.66V465.67h22.66V673.51z"/>
		<path class="st0" d="M1377.43,465.67v207.84h-22.66l-14.97-91.04v91.04h-22.66V465.67h22.66l14.97,90.23v-90.23H1377.43z"/>
		<path class="st0" d="M1423.41,673.51h-22.66V465.67h22.66V673.51z"/>
	</g>
</g>
<g id="Livello_2">
</g>
</svg>
